<svg width="72" height="24" viewBox="0 0 72 24" fill="none" xmlns="http://www.w3.org/2000/svg">
<g id="Artboard 1 copy 4 1" clip-path="url(#clip0_15779_91)">
<path id="Vector" d="M58.1324 24H25.7662L28.3221 0H60.6883L58.1324 24Z" fill="url(#paint0_linear_15779_91)"/>
<path id="Vector_2" d="M14.3326 6.74329L11.0217 9.70782L11.3171 9.80973C11.3171 9.80973 14.2715 10.9711 14.2715 14.4653C14.2715 17.9495 11.1541 21.6883 6.79389 21.6883C2.43363 21.6883 0.569366 18.5302 0.569366 15.749L4.55264 15.372C4.55264 15.372 4.71561 17.868 7.13003 17.868C7.13003 17.868 10.1965 17.8273 10.1965 14.9646C10.1965 14.9646 9.99277 13.1716 8.53591 13.1716C8.53591 13.1716 7.71073 13.1003 6.98746 13.3142L4.98049 11.0322L9.83993 6.7433H1.97518L2.25026 2.78036H14.6077L14.3326 6.74329Z" fill="black"/>
<path id="Vector_3" d="M24.5004 2.77921L22.5691 21.6871H18.0717L19.8004 6.74987H17.4775L17.68 2.77921H24.5004Z" fill="black"/>
<path id="Vector_4" d="M43.6534 2.99432H38.8755L29.6355 21.2196H34.4439L36.2471 17.6744H42.706L43.6025 21.2196H48.4212L43.6534 2.99432ZM38.1726 13.8949L40.5666 9.19845L41.7483 13.8949H38.1726Z" fill="white"/>
<path id="Vector_5" d="M54.8505 21.2196H50.2933L52.3308 2.99432H56.888L54.8505 21.2196Z" fill="white"/>
<path id="Vector_6" d="M70.0621 15.3601C71.4087 16.681 70.9903 19.1036 69.5522 20.2096C67.8287 21.535 64.9804 21.5356 63.018 20.7141C62.2767 20.4038 61.7078 19.9383 61.363 19.3178C61.363 19.3178 63.0068 17.5332 63.0352 17.5593C63.7528 18.2194 64.4642 18.5679 65.4527 18.6959C66.2027 18.793 67.5635 18.7242 67.9116 17.8766C68.2094 17.1515 67.4009 16.7747 66.8451 16.6285C65.6577 16.3161 64.299 15.8918 63.355 15.0234C62.336 14.0858 62.325 12.6186 62.9145 11.4395C63.1559 10.9568 63.4835 10.543 63.8972 10.1982C64.3282 9.87069 64.828 9.61217 65.397 9.43972C65.9831 9.26737 66.621 9.19845 67.2932 9.19845C68.2242 9.19845 69.0516 9.33629 69.7929 9.62942C70.5342 9.92246 71.0686 10.3017 71.4306 10.8017L69.8102 12.629C69.8102 12.629 69.7929 12.5945 69.7585 12.5772C69.5688 12.4049 68.7413 11.8532 68.1208 11.7498C67.4657 11.6119 66.8559 11.5885 66.2008 11.8643C65.494 12.1746 65.1901 12.9392 65.7418 13.3875C66.0885 13.6693 66.7467 13.872 67.167 13.9615C68.2935 14.2016 69.3027 14.6153 70.0621 15.3601Z" fill="black"/>
<path id="Vector_7" d="M63.2593 17.8007C63.1386 17.6973 63.0697 17.5939 63.0352 17.5593C63.0697 17.5939 63.1559 17.68 63.2593 17.8007Z" fill="black"/>
</g>
<defs>
<linearGradient id="paint0_linear_15779_91" x1="27.2398" y1="27.1495" x2="57.5388" y2="-3.14951" gradientUnits="userSpaceOnUse">
<stop stop-color="#787CFE"/>
<stop offset="1" stop-color="#30ABE9"/>
</linearGradient>
<clipPath id="clip0_15779_91">
<rect width="72" height="24" fill="white"/>
</clipPath>
</defs>
</svg>
