<svg width="21" height="20" viewBox="0 0 21 20" fill="none" xmlns="http://www.w3.org/2000/svg">
<g id="ArrowCounterClockwise">
<g id="Vector">
<path fill-rule="evenodd" clip-rule="evenodd" d="M2.98438 3.41408C3.32955 3.41408 3.60938 3.6939 3.60938 4.03908V7.16408H6.73438C7.07955 7.16408 7.35938 7.4439 7.35938 7.78908C7.35938 8.13425 7.07955 8.41408 6.73438 8.41408H2.98438C2.6392 8.41408 2.35938 8.13425 2.35938 7.78908V4.03908C2.35938 3.6939 2.6392 3.41408 2.98438 3.41408Z" fill="black"/>
<path fill-rule="evenodd" clip-rule="evenodd" d="M9.03854 2.64456C10.4936 2.35468 12.0019 2.50284 13.3727 3.07032C14.7435 3.6378 15.9152 4.59909 16.7396 5.83259C17.5639 7.06609 18.004 8.51638 18.004 10C18.004 11.4836 17.5639 12.9339 16.7396 14.1674C15.9152 15.4009 14.7435 16.3622 13.3727 16.9297C12.0019 17.4972 10.4936 17.6453 9.03854 17.3554C7.58351 17.0656 6.24715 16.3506 5.1985 15.3011C4.95452 15.057 4.95469 14.6612 5.19886 14.4173C5.44304 14.1733 5.83877 14.1734 6.08275 14.4176C6.95662 15.2922 8.07026 15.888 9.28278 16.1295C10.4953 16.3711 11.7522 16.2476 12.8946 15.7747C14.0369 15.3018 15.0133 14.5008 15.7003 13.4728C16.3873 12.4449 16.754 11.2364 16.754 10C16.754 8.76365 16.3873 7.55508 15.7003 6.52716C15.0133 5.49924 14.0369 4.69817 12.8946 4.22527C11.7522 3.75237 10.4953 3.6289 9.28278 3.87047C8.07026 4.11204 6.95662 4.7078 6.08275 5.58239L6.08192 5.58322L3.42567 8.23166C3.18123 8.47538 2.7855 8.47479 2.54178 8.23036C2.29806 7.98592 2.29865 7.59019 2.54308 7.34647L5.1985 4.69887C5.19836 4.69901 5.19864 4.69873 5.1985 4.69887C6.24709 3.64959 7.58371 2.93441 9.03854 2.64456Z" fill="black"/>
</g>
</g>
</svg>
