<svg width="16" height="16" viewBox="0 0 16 16" fill="none" xmlns="http://www.w3.org/2000/svg">
<g id="CircleWavyCheck">
<g id="Vector">
<path fill-rule="evenodd" clip-rule="evenodd" d="M6.73821 2.95115C6.55533 3.10949 6.33627 3.27622 6.08577 3.38041C5.83338 3.48538 5.56076 3.52114 5.32078 3.53691C5.16366 3.54724 4.98834 3.55004 4.82855 3.55258C4.75272 3.55379 4.68039 3.55495 4.61516 3.55682C4.13453 3.57065 3.88986 3.62974 3.7598 3.7598C3.63047 3.88913 3.57376 4.12651 3.56156 4.60418C3.55999 4.66536 3.55906 4.73247 3.55808 4.80282C3.55582 4.96605 3.55331 5.14675 3.54211 5.31137C3.52555 5.55484 3.48773 5.82951 3.37994 6.0869C3.27327 6.3416 3.10646 6.56274 2.94635 6.74822C2.83712 6.87475 2.71111 7.00628 2.59676 7.12564C2.5481 7.17644 2.50155 7.22503 2.4593 7.2701C2.30483 7.43487 2.18546 7.57476 2.10424 7.70652C2.02505 7.83499 2 7.92753 2 8C2 8.0718 2.02532 8.16585 2.10624 8.29739C2.18877 8.43154 2.30976 8.57406 2.46472 8.74006C2.50902 8.78751 2.55816 8.83895 2.60949 8.89269C2.72213 9.0106 2.84534 9.13957 2.95115 9.26179C3.10949 9.44467 3.27622 9.66373 3.38041 9.91423C3.48538 10.1666 3.52114 10.4392 3.53691 10.6792C3.54724 10.8363 3.55004 11.0117 3.55258 11.1715C3.55379 11.2473 3.55495 11.3196 3.55682 11.3848C3.57065 11.8655 3.62974 12.1101 3.7598 12.2402C3.88913 12.3695 4.12651 12.4262 4.60418 12.4384C4.66536 12.44 4.73248 12.4409 4.80284 12.4419C4.96607 12.4442 5.14676 12.4467 5.31137 12.4579C5.55484 12.4745 5.82951 12.5123 6.0869 12.6201C6.3416 12.7267 6.56274 12.8935 6.74822 13.0536C6.87475 13.1629 7.00627 13.2889 7.12563 13.4032C7.17643 13.4519 7.22503 13.4984 7.2701 13.5407C7.43487 13.6952 7.57476 13.8145 7.70652 13.8958C7.83499 13.975 7.92753 14 8 14C8.0718 14 8.16585 13.9747 8.29739 13.8938C8.43154 13.8112 8.57406 13.6902 8.74006 13.5353C8.78751 13.491 8.83895 13.4418 8.89269 13.3905C9.0106 13.2779 9.13957 13.1547 9.26179 13.0488C9.44467 12.8905 9.66373 12.7238 9.91423 12.6196C10.1666 12.5146 10.4392 12.4789 10.6792 12.4631C10.8363 12.4528 11.0117 12.45 11.1714 12.4474C11.2473 12.4462 11.3196 12.4451 11.3848 12.4432C11.8655 12.4293 12.1101 12.3703 12.2402 12.2402C12.3695 12.1109 12.4262 11.8735 12.4384 11.3958C12.44 11.3346 12.4409 11.2675 12.4419 11.1972C12.4442 11.0339 12.4467 10.8532 12.4579 10.6886C12.4745 10.4452 12.5123 10.1705 12.6201 9.9131C12.7267 9.6584 12.8935 9.43726 13.0536 9.25178C13.1629 9.12525 13.2889 8.99373 13.4032 8.87437C13.4519 8.82357 13.4984 8.77497 13.5407 8.7299C13.6952 8.56513 13.8145 8.42524 13.8958 8.29348C13.975 8.16501 14 8.07247 14 8C14 7.9282 13.9747 7.83415 13.8938 7.70261C13.8112 7.56846 13.6902 7.42594 13.5353 7.25994C13.491 7.21249 13.4418 7.16105 13.3905 7.10731C13.2779 6.9894 13.1547 6.86043 13.0488 6.73821C12.8905 6.55533 12.7238 6.33627 12.6196 6.08577C12.5146 5.83338 12.4789 5.56076 12.4631 5.32078C12.4528 5.16366 12.45 4.98835 12.4474 4.82856C12.4462 4.75273 12.4451 4.68039 12.4432 4.61516C12.4293 4.13453 12.3703 3.88986 12.2402 3.7598C12.1109 3.63047 11.8735 3.57376 11.3958 3.56156C11.3346 3.55999 11.2675 3.55906 11.1972 3.55808C11.034 3.55582 10.8533 3.55331 10.6886 3.54211C10.4452 3.52555 10.1705 3.48773 9.9131 3.37994C9.6584 3.27327 9.43726 3.10646 9.25178 2.94635C9.12525 2.83712 8.99372 2.71111 8.87436 2.59676C8.82356 2.5481 8.77497 2.50155 8.7299 2.4593C8.56513 2.30483 8.42524 2.18546 8.29348 2.10424C8.16501 2.02505 8.07247 2 8 2C7.9282 2 7.83415 2.02532 7.70261 2.10624C7.56846 2.18877 7.42594 2.30976 7.25994 2.46472C7.21249 2.50902 7.16105 2.55816 7.10731 2.60949C6.9894 2.72213 6.86043 2.84534 6.73821 2.95115ZM7.17864 1.2545C7.40491 1.11531 7.68117 1 8 1C8.31815 1 8.5928 1.11402 8.81824 1.25299C9.04039 1.38993 9.24112 1.56783 9.41385 1.72976C9.47673 1.78871 9.53476 1.84435 9.59023 1.89754C9.69931 2.00213 9.7985 2.09724 9.90525 2.18939C10.0612 2.324 10.1885 2.41111 10.2994 2.45756C10.4076 2.50289 10.5548 2.5307 10.7565 2.54441C10.8942 2.55378 11.0277 2.55556 11.1755 2.55753C11.2527 2.55856 11.3338 2.55964 11.4214 2.56188C11.8609 2.57311 12.5016 2.60703 12.9473 3.0527C13.3922 3.49764 13.43 4.1436 13.4428 4.5864C13.4455 4.68103 13.4468 4.7676 13.448 4.84967C13.4502 4.99225 13.4521 5.12122 13.4609 5.2552C13.4743 5.45799 13.501 5.601 13.5429 5.70173C13.5856 5.80435 13.6696 5.92748 13.8049 6.08366C13.8951 6.18793 13.9879 6.2849 14.0899 6.39157C14.1456 6.44976 14.204 6.51084 14.2663 6.57756C14.4293 6.75219 14.6079 6.95498 14.7455 7.17864C14.8847 7.40491 15 7.68117 15 8C15 8.31815 14.886 8.5928 14.747 8.81824C14.6101 9.04039 14.4322 9.24112 14.2702 9.41385C14.2113 9.47672 14.1557 9.53475 14.1025 9.59022C13.9979 9.69931 13.9028 9.7985 13.8106 9.90525C13.676 10.0612 13.5889 10.1885 13.5424 10.2994C13.4971 10.4076 13.4693 10.5548 13.4556 10.7565C13.4462 10.8942 13.4444 11.0277 13.4425 11.1755C13.4414 11.2527 13.4404 11.3338 13.4381 11.4214C13.4269 11.8609 13.393 12.5016 12.9473 12.9473C12.5024 13.3922 11.8564 13.43 11.4136 13.4428C11.319 13.4455 11.2324 13.4468 11.1503 13.448C11.0078 13.4502 10.8788 13.4521 10.7448 13.4609C10.542 13.4743 10.399 13.501 10.2983 13.5429C10.1956 13.5856 10.0725 13.6696 9.91634 13.8049C9.81206 13.8951 9.7151 13.9879 9.60843 14.0899C9.55024 14.1456 9.48916 14.204 9.42244 14.2663C9.24781 14.4293 9.04502 14.6079 8.82136 14.7455C8.59509 14.8847 8.31883 15 8 15C7.68185 15 7.4072 14.886 7.18176 14.747C6.95961 14.6101 6.75888 14.4322 6.58615 14.2702C6.52327 14.2113 6.46525 14.1556 6.40978 14.1025C6.30069 13.9979 6.2015 13.9028 6.09475 13.8106C5.93882 13.676 5.81153 13.5889 5.7006 13.5424C5.59236 13.4971 5.44516 13.4693 5.24351 13.4556C5.10583 13.4462 4.97233 13.4444 4.82447 13.4425C4.74731 13.4414 4.66624 13.4404 4.57863 13.4381C4.13912 13.4269 3.49837 13.393 3.0527 12.9473C2.60776 12.5024 2.56998 11.8564 2.55724 11.4136C2.55452 11.319 2.55321 11.2324 2.55197 11.1503C2.54982 11.0078 2.54787 10.8788 2.53906 10.7448C2.52574 10.542 2.49899 10.399 2.45709 10.2983C2.41441 10.1956 2.33036 10.0725 2.19513 9.91634C2.10486 9.81206 2.01211 9.7151 1.91008 9.60843C1.85442 9.55024 1.79601 9.48916 1.73372 9.42244C1.57071 9.24781 1.39209 9.04502 1.2545 8.82136C1.11531 8.59509 1 8.31883 1 8C1 7.68185 1.11402 7.4072 1.25299 7.18176C1.38993 6.95961 1.56783 6.75888 1.72976 6.58615C1.78871 6.52327 1.84435 6.46524 1.89754 6.40977C2.00213 6.30069 2.09724 6.2015 2.18939 6.09475C2.324 5.93882 2.41111 5.81153 2.45756 5.7006C2.50289 5.59236 2.5307 5.44516 2.54441 5.24351C2.55378 5.10583 2.55556 4.97232 2.55753 4.82447C2.55856 4.74731 2.55964 4.66624 2.56188 4.57863C2.57311 4.13912 2.60703 3.49837 3.0527 3.0527C3.49764 2.60776 4.1436 2.56998 4.5864 2.55724C4.68103 2.55452 4.7676 2.55321 4.84966 2.55197C4.99224 2.54982 5.12122 2.54787 5.2552 2.53906C5.45799 2.52574 5.601 2.49899 5.70173 2.45709C5.80435 2.41441 5.92748 2.33036 6.08366 2.19513C6.18794 2.10486 6.2849 2.01211 6.39158 1.91008C6.44976 1.85442 6.51084 1.79601 6.57756 1.73372C6.75219 1.57071 6.95498 1.39209 7.17864 1.2545Z" fill="white"/>
<path fill-rule="evenodd" clip-rule="evenodd" d="M11.1118 6.15487C11.3024 6.35467 11.2949 6.67116 11.0951 6.86178L7.42639 10.3618C7.23308 10.5462 6.92896 10.5461 6.73581 10.3615L4.90456 8.61148C4.70492 8.4207 4.69774 8.1042 4.88852 7.90456C5.0793 7.70492 5.3958 7.69774 5.59544 7.88852L7.08155 9.30868L10.4049 6.13823C10.6047 5.94761 10.9212 5.95506 11.1118 6.15487Z" fill="white"/>
</g>
</g>
</svg>
