<svg width="23" height="24" viewBox="0 0 23 24" fill="none" xmlns="http://www.w3.org/2000/svg">
<g id="Layer 1">
<g id="Group">
<g id="Group_2">
<path id="Vector" d="M12.0444 15.1683V22.8629C12.0444 23.7139 11.1433 24.2627 10.3872 23.8721L2.10886 19.5976C0.678589 18.859 0 17.504 0 16.1545C0 14.4864 1.03643 12.8281 2.96964 12.3546L2.99801 12.347L4.22972 12.0459L7.16118 11.3291C6.14221 11.5789 5.97638 12.9579 6.90808 13.4412C6.91353 13.4445 6.91899 13.4467 6.92444 13.45C6.95063 13.4631 6.9779 13.4772 7.00408 13.4914C7.03027 13.5056 7.05754 13.5198 7.08482 13.5329C7.111 13.546 7.13827 13.5612 7.16555 13.5743C7.23537 13.6103 7.30519 13.6463 7.37611 13.6834C7.40775 13.6998 7.43938 13.7162 7.46993 13.7325C7.50375 13.75 7.53757 13.7674 7.57139 13.7849C7.62594 13.8133 7.68049 13.8416 7.73504 13.87C7.76231 13.8842 7.78959 13.8984 7.81686 13.9125C7.84414 13.9267 7.87141 13.9409 7.89869 13.9551C7.9456 13.9791 7.99142 14.0031 8.03833 14.0271C8.26307 14.1438 8.48672 14.2595 8.70383 14.3718C8.7562 14.3991 8.80856 14.4264 8.85984 14.4526C9.00712 14.5289 9.15222 14.6042 9.29296 14.6762C9.31696 14.6882 9.33987 14.7002 9.36278 14.7122C9.4446 14.7548 9.52425 14.7962 9.6017 14.8366C9.63443 14.8541 9.66716 14.8704 9.69989 14.8868C9.78172 14.9293 9.86245 14.9708 9.93991 15.0112C9.94427 15.0133 9.94973 15.0155 9.95409 15.0188C9.98573 15.0352 10.0174 15.0515 10.049 15.0679C10.0534 15.0701 10.0566 15.0723 10.061 15.0733C10.0643 15.0755 10.0686 15.0766 10.0719 15.0788C10.1014 15.0941 10.1308 15.1093 10.1603 15.1246C10.1701 15.1301 10.1799 15.1344 10.1908 15.1399C10.2214 15.1552 10.2508 15.1704 10.2792 15.1857C10.2988 15.1955 10.3174 15.2053 10.3359 15.2152C10.3447 15.2195 10.3534 15.2239 10.361 15.2283L10.3632 15.2294C10.3818 15.2392 10.4003 15.249 10.4188 15.2577C10.5018 15.3003 10.5792 15.3406 10.6512 15.3777C10.6654 15.3854 10.6796 15.393 10.6938 15.3995C10.7167 15.4115 10.7385 15.4225 10.7603 15.4345C10.768 15.4377 10.7745 15.4421 10.7821 15.4454C10.8465 15.4781 10.9043 15.5086 10.9567 15.5359C10.9665 15.5403 10.9752 15.5457 10.984 15.5501C11.1334 15.6276 11.2174 15.6712 11.2174 15.6712C11.596 15.8665 12.0466 15.5926 12.0466 15.1661L12.0444 15.1683Z" fill="url(#paint0_linear_15756_20531)"/>
<path id="Vector_2" d="M10.0894 2.46069V8.83201C10.0894 9.87935 9.3737 10.7903 8.3569 11.0391L7.16228 11.3314L4.23082 12.0482L2.99911 12.3493L2.97074 12.357C1.03753 12.8294 0.00109863 14.4887 0.00109863 16.1568V8.44799C0.00109863 6.77988 1.03753 5.12159 2.97074 4.64811L9.65626 3.01273C9.91046 2.95054 10.0894 2.72253 10.0894 2.46069Z" fill="url(#paint1_linear_15756_20531)"/>
<path id="Vector_3" d="M22.1326 7.84472C22.1326 9.51283 21.0962 11.1711 19.163 11.6446L17.9029 11.9523L14.9715 12.669C15.9904 12.4192 16.1563 11.0402 15.2246 10.5569C15.2191 10.5536 15.2137 10.5514 15.2082 10.5482C15.1286 10.5067 15.0478 10.4653 14.9671 10.4227C14.8973 10.3867 14.8275 10.3507 14.7565 10.3136C14.7249 10.2972 14.6933 10.2809 14.6627 10.2645C14.6289 10.2471 14.5951 10.2296 14.5613 10.2121C14.5067 10.1838 14.4522 10.1554 14.3976 10.1271C14.3703 10.1129 14.3431 10.0987 14.3158 10.0845C14.2885 10.0703 14.2612 10.0561 14.234 10.042C14.187 10.018 14.1412 9.99395 14.0943 9.96995C13.8696 9.85322 13.6459 9.73757 13.4288 9.6252C13.3765 9.59793 13.3241 9.57174 13.2728 9.54447C12.879 9.34046 12.5069 9.14735 12.1786 8.97825C12.1426 8.9597 12.1066 8.94116 12.0716 8.92261C12.0684 8.92043 12.064 8.91934 12.0607 8.91716C12.0313 8.90188 12.0018 8.88661 11.9724 8.87133C11.9625 8.86588 11.9527 8.86042 11.9418 8.85606C11.8916 8.82988 11.8436 8.80478 11.7967 8.78078C11.788 8.77642 11.7793 8.77205 11.7716 8.76769C11.6669 8.71314 11.5698 8.66296 11.4814 8.61714C11.4672 8.6095 11.4531 8.60186 11.4389 8.59532C11.416 8.58332 11.3941 8.57241 11.3723 8.56041C11.3647 8.55713 11.3581 8.55277 11.3505 8.5495C11.2861 8.51677 11.2283 8.48622 11.1759 8.45895C11.1661 8.45458 11.1574 8.44913 11.1487 8.44476C10.9992 8.3673 10.9152 8.32366 10.9152 8.32366C10.5366 8.12838 10.0861 8.40221 10.0861 8.82879V1.13739C10.0861 0.286423 10.9872 -0.262339 11.7433 0.128231L20.0216 4.40269C21.4519 5.14128 22.1305 6.49627 22.1305 7.84581L22.1326 7.84472Z" fill="url(#paint2_linear_15756_20531)"/>
<path id="Vector_4" d="M22.1327 7.84473V15.5536C22.1327 17.2217 21.0963 18.88 19.1631 19.3535L12.4776 20.9888C12.2234 21.051 12.0444 21.279 12.0444 21.5409V15.1696C12.0444 14.1222 12.7601 13.2113 13.7769 12.9625L14.9715 12.6701L17.903 11.9534L19.1631 11.6457C21.0963 11.1733 22.1327 9.51283 22.1327 7.84473Z" fill="url(#paint3_linear_15756_20531)"/>
</g>
</g>
</g>
<defs>
<linearGradient id="paint0_linear_15756_20531" x1="0.00109098" y1="17.6655" x2="12.0444" y2="17.6655" gradientUnits="userSpaceOnUse">
<stop stop-color="#0372CB"/>
<stop offset="1" stop-color="#30ABE9"/>
</linearGradient>
<linearGradient id="paint1_linear_15756_20531" x1="0.00109863" y1="9.30768" x2="10.0894" y2="9.30768" gradientUnits="userSpaceOnUse">
<stop stop-color="#73E9F4"/>
<stop offset="1" stop-color="#45BAE5"/>
</linearGradient>
<linearGradient id="paint2_linear_15756_20531" x1="10.0893" y1="6.33481" x2="22.1326" y2="6.33481" gradientUnits="userSpaceOnUse">
<stop stop-color="#30ABE9"/>
<stop offset="1" stop-color="#0372CB"/>
</linearGradient>
<linearGradient id="paint3_linear_15756_20531" x1="12.0444" y1="14.6928" x2="22.1327" y2="14.6928" gradientUnits="userSpaceOnUse">
<stop stop-color="#2EAAE5"/>
<stop offset="1" stop-color="#48CDF4"/>
</linearGradient>
</defs>
</svg>
