<svg width="18" height="16" viewBox="0 0 18 16" fill="none" xmlns="http://www.w3.org/2000/svg">
<g id="Vector">
<path fill-rule="evenodd" clip-rule="evenodd" d="M16.5155 1.41408C16.8607 1.41408 17.1405 1.6939 17.1405 2.03908V5.78908C17.1405 6.13426 16.8607 6.41408 16.5155 6.41408H12.7655C12.4203 6.41408 12.1405 6.13426 12.1405 5.78908C12.1405 5.4439 12.4203 5.16408 12.7655 5.16408H15.8905V2.03908C15.8905 1.6939 16.1703 1.41408 16.5155 1.41408Z" fill="white"/>
<path fill-rule="evenodd" clip-rule="evenodd" d="M9 1.75076C8.1795 1.75076 7.36704 1.91252 6.60911 2.22679C5.85118 2.54106 5.16265 3.00167 4.58289 3.58228C4.33899 3.82653 3.94326 3.82682 3.69901 3.58292C3.45475 3.33902 3.45446 2.94329 3.69836 2.69904C4.39422 2.00217 5.22063 1.44932 6.13034 1.07212C7.04004 0.694917 8.01519 0.500763 9 0.500763C9.98481 0.500763 10.96 0.694917 11.8697 1.07212C12.7792 1.44924 13.6054 2.00194 14.3012 2.69862V2.69862L16.9569 5.3465C17.2014 5.59022 17.2019 5.98595 16.9582 6.23039C16.7145 6.47482 16.3188 6.47541 16.0743 6.23169L13.4171 3.58228C12.8374 3.00167 12.1488 2.54106 11.3909 2.22679C10.633 1.91252 9.8205 1.75076 9 1.75076Z" fill="white"/>
<path fill-rule="evenodd" clip-rule="evenodd" d="M0.859375 10.2109C0.859375 9.86574 1.1392 9.58592 1.48437 9.58592H5.23437C5.57955 9.58592 5.85937 9.86574 5.85937 10.2109C5.85937 10.5561 5.57955 10.8359 5.23437 10.8359H2.10937V13.9609C2.10937 14.3061 1.82955 14.5859 1.48437 14.5859C1.1392 14.5859 0.859375 14.3061 0.859375 13.9609V10.2109Z" fill="white"/>
<path fill-rule="evenodd" clip-rule="evenodd" d="M1.04178 9.76963C1.2855 9.52519 1.68123 9.52461 1.92567 9.76833L4.58289 12.4177C5.16265 12.9983 5.85118 13.459 6.60911 13.7732C7.36705 14.0875 8.1795 14.2493 9 14.2493C9.8205 14.2493 10.633 14.0875 11.3909 13.7732C12.1488 13.459 12.8374 12.9983 13.4171 12.4177C13.661 12.1735 14.0567 12.1732 14.301 12.4171C14.5452 12.661 14.5455 13.0567 14.3016 13.301C13.6058 13.9978 12.7794 14.5507 11.8697 14.9279C10.96 15.3051 9.98481 15.4993 9 15.4993C8.01519 15.4993 7.04004 15.3051 6.13034 14.9279C5.22086 14.5508 4.39463 13.9981 3.69889 13.3015L3.69836 13.301L1.04308 10.6535C0.798648 10.4098 0.798065 10.0141 1.04178 9.76963Z" fill="white"/>
</g>
</svg>
