<svg width="95" height="13" viewBox="0 0 95 13" fill="none" xmlns="http://www.w3.org/2000/svg">
<path d="M7.1989 3.79558C7.09945 2.8232 6.28729 2.25967 5.06077 2.25967C3.77348 2.25967 3.00552 2.88398 3.00552 3.74033C2.99448 4.68508 4 5.08287 4.9337 5.30387L5.99448 5.56906C7.68508 5.96685 9.31492 6.85635 9.31492 8.8232C9.31492 10.8122 7.74033 12.1713 5.02762 12.1713C2.39779 12.1713 0.729282 10.9116 0.640884 8.66851H2.64088C2.72928 9.85083 3.72928 10.4309 5.01105 10.4309C6.35359 10.4309 7.27624 9.77901 7.28177 8.80663C7.27624 7.92818 6.45856 7.54696 5.24309 7.23204L3.9558 6.90055C2.09392 6.42541 0.939227 5.48619 0.944751 3.86188C0.933702 1.86188 2.71271 0.530386 5.0884 0.530386C7.49171 0.530386 9.12155 1.88398 9.16022 3.79558H7.1989ZM14.687 12.1657C12.129 12.1657 10.5654 10.4641 10.5654 7.80663C10.5654 5.18785 12.1511 3.40331 14.5765 3.40331C16.6594 3.40331 18.4549 4.70718 18.4549 7.69061V8.30387H12.5378C12.5599 9.76243 13.4163 10.6188 14.7091 10.6188C15.5765 10.6188 16.1676 10.2376 16.4273 9.72928H18.3721C18.0129 11.1989 16.6594 12.1657 14.687 12.1657ZM12.5433 6.9558H16.5433C16.5378 5.8011 15.7588 4.9558 14.6096 4.9558C13.4107 4.9558 12.6041 5.87293 12.5433 6.9558ZM19.6104 9.61878C19.6104 7.70166 21.196 7.14365 22.7706 7.03867C23.3618 7 24.5717 6.94475 24.9419 6.92818L24.9364 6.24309C24.9364 5.40884 24.4005 4.92265 23.4005 4.92265C22.511 4.92265 21.9695 5.32597 21.8204 5.9337H19.8922C20.0358 4.49724 21.3286 3.40331 23.4557 3.40331C25.0634 3.40331 26.9198 4.0663 26.9198 6.32597V12H25.0137V10.8343H24.9474C24.5828 11.5414 23.7872 12.1713 22.4557 12.1713C20.8369 12.1713 19.6104 11.2873 19.6104 9.61878ZM21.5331 9.59116C21.5331 10.326 22.1297 10.7072 22.964 10.7072C24.1739 10.7072 24.9474 9.90608 24.9474 8.9558L24.9419 8.25414C24.5828 8.27072 23.4778 8.34254 23.08 8.38122C22.1297 8.45304 21.5331 8.85083 21.5331 9.59116ZM28.8051 12V3.51381H30.7333V4.92818H30.8217C31.131 3.94475 31.9487 3.39227 32.9156 3.39227C33.1366 3.39227 33.4515 3.41436 33.6393 3.44751V5.27624C33.4625 5.22099 33.0426 5.16022 32.7112 5.16022C31.6117 5.16022 30.794 5.92818 30.794 7V12H28.8051ZM38.2567 12.1657C35.7208 12.1657 34.1904 10.3591 34.1904 7.79006C34.1904 5.19889 35.7595 3.40331 38.2402 3.40331C40.3065 3.40331 41.7484 4.61326 41.881 6.44199H39.986C39.8258 5.62431 39.2346 5.00552 38.2733 5.00552C37.0302 5.00552 36.2015 6.03867 36.2015 7.75691C36.2015 9.50276 37.0136 10.5414 38.2733 10.5414C39.1518 10.5414 39.8092 10.0221 39.986 9.1105H41.881C41.7429 10.9006 40.3838 12.1657 38.2567 12.1657ZM45.3878 7.02762V12H43.3988V0.685082H45.3436V4.9558H45.4485C45.8408 3.99447 46.664 3.40331 47.9679 3.40331C49.7248 3.40331 50.8905 4.54144 50.8905 6.59668V12H48.9016V6.90055C48.9016 5.75138 48.2828 5.0884 47.2276 5.0884C46.1557 5.0884 45.3878 5.79558 45.3878 7.02762ZM60.8681 3.51381V5.04972H59.1167V12H57.1278V5.04972H55.8626V3.51381H57.1278V2.70718C57.1278 1.05525 58.1499 0.154696 59.7742 0.154696C60.2438 0.154696 60.6747 0.204419 61.0338 0.281768V1.85083C60.7134 1.81215 60.4703 1.8011 60.3267 1.8011C59.52 1.8011 59.1167 2.12155 59.1167 2.88398V3.51381H60.8681ZM65.6786 12.1657C63.1979 12.1657 61.6123 10.4144 61.6123 7.79006C61.6123 5.16022 63.1979 3.40331 65.6786 3.40331C68.1593 3.40331 69.7394 5.16022 69.7394 7.79006C69.7394 10.4144 68.1593 12.1657 65.6786 12.1657ZM63.6234 7.78453C63.6234 9.33702 64.3029 10.5746 65.6841 10.5746C67.0432 10.5746 67.7228 9.33702 67.7228 7.78453C67.7228 6.23204 67.0432 4.9779 65.6841 4.9779C64.3029 4.9779 63.6234 6.23204 63.6234 7.78453ZM71.3051 12V3.51381H73.2333V4.92818H73.3217C73.631 3.94475 74.4487 3.39227 75.4156 3.39227C75.6366 3.39227 75.9515 3.41436 76.1393 3.44751V5.27624C75.9625 5.22099 75.5426 5.16022 75.2112 5.16022C74.1117 5.16022 73.294 5.92818 73.294 7V12H71.3051ZM82.6369 12H80.4601L84.4491 0.685082H86.9574L90.9463 12H88.775L87.8358 9.19889H83.5761L82.6369 12ZM84.1231 7.56354H87.2833L85.7474 2.99447H85.659L84.1231 7.56354ZM94.3329 0.685082V12H92.3052V0.685082H94.3329Z" fill="url(#paint0_linear_15812_23771)"/>
<defs>
<linearGradient id="paint0_linear_15812_23771" x1="94.2924" y1="18" x2="86.8238" y2="-21.923" gradientUnits="userSpaceOnUse">
<stop stop-color="#48BED9"/>
<stop offset="1" stop-color="#787CFE"/>
</linearGradient>
</defs>
</svg>
