<?xml version="1.0" encoding="UTF-8"?><svg id="Layer_1" xmlns="http://www.w3.org/2000/svg" width="103.302" height="24" xmlns:xlink="http://www.w3.org/1999/xlink" viewBox="0 0 103.302 24"><defs><style>.cls-1{fill:url(#linear-gradient-4);}.cls-2{fill:url(#linear-gradient-3);}.cls-3{fill:url(#linear-gradient-2);}.cls-4{fill:url(#linear-gradient);}</style><linearGradient id="linear-gradient" x1="2.351" y1="17.193" x2="13.39" y2="17.193" gradientUnits="userSpaceOnUse"><stop offset="0" stop-color="#0372cb"/><stop offset="1" stop-color="#30abe9"/></linearGradient><linearGradient id="linear-gradient-2" x1="2.351" y1="9.532" x2="11.598" y2="9.532" gradientUnits="userSpaceOnUse"><stop offset="0" stop-color="#73e9f4"/><stop offset="1" stop-color="#45bae5"/></linearGradient><linearGradient id="linear-gradient-3" x1="11.598" y1="6.807" x2="22.637" y2="6.807" gradientUnits="userSpaceOnUse"><stop offset="0" stop-color="#30abe9"/><stop offset="1" stop-color="#0372cb"/></linearGradient><linearGradient id="linear-gradient-4" x1="13.39" y1="14.468" x2="22.637" y2="14.468" gradientUnits="userSpaceOnUse"><stop offset="0" stop-color="#2eaae5"/><stop offset="1" stop-color="#48cdf4"/></linearGradient></defs><path d="M28.151,7.55h4.2v11.2c0,.4.3.6.6.6h2.4V7.55h4.2v-2.7h-11.6v2.7h.2Z"/><path d="M43.451,9.35v-.8h-2.7v10.2c0,.4.3.6.6.6h2.4v-6.4c0-1.2,1.2-1.9,2.3-1.9s.7,0,1.1.1l.2-2.7c-.4,0-.9-.1-1.3-.1-1.1,0-2,.4-2.7,1h.1Z"/><path d="M54.051,8.25c-.9,0-1.6.3-2.2.7v-.4h-3v10.2c0,.4.3.6.6.6h2.4v-6.5c0-1.2.8-1.9,1.8-1.9s1.8.6,1.8,1.8v6c0,.4.3.6.6.6h2.4v-6.5c0-3.2-2-4.6-4.5-4.6h.1Z"/><path d="M67.051,9.05c-.6-.4-1.4-.7-2.2-.7-2.5,0-4.5,1.4-4.5,4.6v1.7c0,3.2,2,4.6,4.5,4.6s1.8-.3,2.4-.8v.4c0,.4.3.6.6.6h2.2V4.55h-3v4.5h0ZM67.051,14.65c0,1.2-.8,1.9-1.8,1.9s-1.8-.6-1.8-1.8v-1.8c0-1.2.8-1.8,1.8-1.8s1.8.7,1.8,1.9v1.7h0v-.1Z"/><polygon points="76.651 15.05 74.551 8.75 71.351 8.75 75.151 18.95 73.651 22.75 76.851 22.75 82.051 8.75 78.851 8.75 76.651 15.05"/><path d="M87.651,4.85l-5.2,14.1h3.2l1.1-3.1h5.1l1.1,3.1h3.2l-5.2-14.1s-3.3,0-3.3,0ZM87.651,13.15l1.6-4.5,1.6,4.5h-3.2Z"/><path d="M97.951,4.85v13.5c0,.4.3.6.6.6h2.4V4.85h-3.1.1Z"/><path class="cls-4" d="M13.39,14.904v7.053c0,.78-.826,1.283-1.519.925l-7.588-3.918c-1.311-.677-1.933-1.919-1.933-3.156,0-1.529.95-3.049,2.722-3.483l.026-.007,1.129-.276,2.687-.657c-.934.229-1.086,1.493-.232,1.936.005.003,3.948,2.044,3.948,2.044.347.179.76-.072.76-.463Z"/><path class="cls-3" d="M11.598,3.256v5.84c0,.96-.656,1.795-1.588,2.023l-1.095.268-2.687.657-1.129.276-.026.007c-1.772.433-2.722,1.954-2.722,3.483v-7.066c0-1.529.95-3.049,2.722-3.483l6.128-1.499c.233-.057.397-.266.397-.506Z"/><path class="cls-2" d="M22.637,8.191c0,1.529-.95,3.049-2.722,3.483l-1.155.282-2.687.657c.934-.229,1.086-1.493.232-1.936-.005-.003-3.948-2.044-3.948-2.044-.347-.179-.76.072-.76.463V2.043c0-.78.826-1.283,1.519-.925l7.588,3.918c1.311.677,1.933,1.919,1.933,3.156Z"/><path class="cls-1" d="M22.637,8.191v7.066c0,1.529-.95,3.049-2.722,3.483l-6.128,1.499c-.233.057-.397.266-.397.506v-5.84c0-.96.656-1.795,1.588-2.023l1.095-.268,2.687-.657,1.155-.282c1.772-.433,2.722-1.954,2.722-3.483Z"/></svg>