<svg width="18" height="18" viewBox="0 0 18 18" fill="none" xmlns="http://www.w3.org/2000/svg">
<g id="Vector">
<path fill-rule="evenodd" clip-rule="evenodd" d="M9 2.125C5.20304 2.125 2.125 5.20304 2.125 9C2.125 12.797 5.20304 15.875 9 15.875C12.797 15.875 15.875 12.797 15.875 9C15.875 5.20304 12.797 2.125 9 2.125ZM0.875 9C0.875 4.51269 4.51269 0.875 9 0.875C13.4873 0.875 17.125 4.51269 17.125 9C17.125 13.4873 13.4873 17.125 9 17.125C4.51269 17.125 0.875 13.4873 0.875 9Z" fill="#616161"/>
<path fill-rule="evenodd" clip-rule="evenodd" d="M9.03459 5.90963C9.27867 5.66555 9.6744 5.66555 9.91847 5.90963L12.5669 8.55807C12.811 8.80214 12.811 9.19787 12.5669 9.44195L9.91847 12.0904C9.6744 12.3345 9.27867 12.3345 9.03459 12.0904C8.79051 11.8463 8.79051 11.4506 9.03459 11.2065L11.2411 9.00001L9.03459 6.79351C8.79051 6.54943 8.79051 6.15371 9.03459 5.90963Z" fill="#616161"/>
<path fill-rule="evenodd" clip-rule="evenodd" d="M5.25 9C5.25 8.65482 5.52982 8.375 5.875 8.375H12.125C12.4702 8.375 12.75 8.65482 12.75 9C12.75 9.34518 12.4702 9.625 12.125 9.625H5.875C5.52982 9.625 5.25 9.34518 5.25 9Z" fill="#616161"/>
</g>
</svg>
